# xmcd CD database file generated by Grip 3.0.5
# 
# Track frame offsets:
#       150
#       17660
#       41175
#       57600
#       76837
#       94337
#       114045
#       138552
#       149637
#       164370
#       181977
#       199272
# 
# Disc length: 3022 seconds
# 
# Revision: 1
# Processed by: cddbd v1.4PL0 Copyright (c) Steve Scherf et al.
# Submitted via: Grip 3.0.5
# 
DISCID=ab0bcc0c
DTITLE=Big George Jackson Blues Band - Big Shot
DYEAR=2003
DGENRE=Blues
TTITLE0=St. Paul Woman
TTITLE1=Big Shot
TTITLE2=What You Get
TTITLE3=If I Could Change
TTITLE4=I Found True Love
TTITLE5=Hard Hearted Woman
TTITLE6=20 Years
TTITLE7=Friday Evening
TTITLE8=The Daddy
TTITLE9=Dirty Haints
TTITLE10=Tell Me
TTITLE11=St. Paul Woman
EXTD=
EXTT0=
EXTT1=
EXTT2=
EXTT3=
EXTT4=
EXTT5=
EXTT6=
EXTT7=
EXTT8=
EXTT9=
EXTT10=
EXTT11=
PLAYORDER=
